<svg xmlns="http://www.w3.org/2000/svg" xmlns:xlink="http://www.w3.org/1999/xlink" viewBox="0 0 462.01 247.27"><defs><style>.cls-1,.cls-2,.cls-3,.cls-4,.cls-5{fill:none;stroke-linecap:round;stroke-miterlimit:10;}.cls-1,.cls-2,.cls-3,.cls-4{stroke-width:13.21px;}.cls-1{stroke:url(#linear-gradient);}.cls-2{stroke:url(#linear-gradient-2);}.cls-3{stroke:url(#linear-gradient-3);}.cls-4{stroke:url(#linear-gradient-4);}.cls-5{stroke:#1e1230;stroke-width:5px;}.cls-5,.cls-8{opacity:0.5;isolation:isolate;}.cls-6{fill:url(#linear-gradient-5);}.cls-7{fill:url(#linear-gradient-6);}.cls-11,.cls-8{fill:#1e1230;}.cls-9{fill:url(#linear-gradient-7);}.cls-10{fill:url(#linear-gradient-8);}.cls-12{fill:url(#linear-gradient-9);}.cls-13{fill:url(#linear-gradient-10);}.cls-14{fill:url(#linear-gradient-11);}.cls-15{fill:url(#linear-gradient-12);}.cls-16{fill:url(#linear-gradient-13);}.cls-17{fill:url(#linear-gradient-14);}.cls-18{fill:url(#linear-gradient-15);}.cls-19{fill:url(#linear-gradient-16);}</style><linearGradient id="linear-gradient" x1="18.5" y1="501.83" x2="114.51" y2="501.83" gradientTransform="translate(0 -290)" gradientUnits="userSpaceOnUse"><stop offset="0" stop-color="#f5be3d"/><stop offset="1" stop-color="#db1a6d"/></linearGradient><linearGradient id="linear-gradient-2" x1="0" y1="481.02" x2="76.31" y2="481.02" xlink:href="#linear-gradient"/><linearGradient id="linear-gradient-3" x1="107.05" y1="123.59" x2="202.96" y2="123.59" gradientTransform="translate(550.46 160.22) rotate(180)" xlink:href="#linear-gradient"/><linearGradient id="linear-gradient-4" x1="88.45" y1="102.79" x2="164.76" y2="102.79" gradientTransform="translate(550.46 160.22) rotate(180)" xlink:href="#linear-gradient"/><linearGradient id="linear-gradient-5" x1="454.89" y1="392.2" x2="260.53" y2="578.22" gradientTransform="translate(0 -290)" gradientUnits="userSpaceOnUse"><stop offset="0" stop-color="#fa667e"/><stop offset="1" stop-color="#7c1d7c"/></linearGradient><linearGradient id="linear-gradient-6" x1="296.4" y1="371.06" x2="458.7" y2="371.06" xlink:href="#linear-gradient-5"/><linearGradient id="linear-gradient-7" x1="963.13" y1="392.2" x2="768.77" y2="578.22" gradientTransform="matrix(-1, 0, 0, 1, 970.24, -290)" xlink:href="#linear-gradient-5"/><linearGradient id="linear-gradient-8" x1="804.64" y1="371.06" x2="966.94" y2="371.06" gradientTransform="matrix(-1, 0, 0, 1, 970.24, -290)" xlink:href="#linear-gradient-5"/><linearGradient id="linear-gradient-9" x1="169.1" y1="380.38" x2="209.2" y2="380.38" xlink:href="#linear-gradient-5"/><linearGradient id="linear-gradient-10" x1="213.4" y1="380.28" x2="294" y2="380.28" xlink:href="#linear-gradient-5"/><linearGradient id="linear-gradient-11" x1="258.6" y1="374.48" x2="293.95" y2="374.48" xlink:href="#linear-gradient-5"/><linearGradient id="linear-gradient-12" x1="130.8" y1="436.18" x2="170.9" y2="436.18" xlink:href="#linear-gradient-5"/><linearGradient id="linear-gradient-13" x1="178.8" y1="436.13" x2="332.3" y2="436.13" xlink:href="#linear-gradient-5"/><linearGradient id="linear-gradient-14" x1="202.3" y1="428.58" x2="241.4" y2="428.58" xlink:href="#linear-gradient-5"/><linearGradient id="linear-gradient-15" x1="248.2" y1="428.58" x2="284.02" y2="428.58" xlink:href="#linear-gradient-5"/><linearGradient id="linear-gradient-16" x1="291.2" y1="428.63" x2="331.83" y2="428.63" xlink:href="#linear-gradient-5"/></defs><title>Asset 1</title><g id="Layer_2" data-name="Layer 2"><g id="Layer_1-2" data-name="Layer 1"><g id="OBJECTS"><line class="cls-1" x1="107.9" y1="211.83" x2="25.1" y2="211.83"/><line class="cls-2" x1="69.7" y1="191.02" x2="6.6" y2="191.02"/><line class="cls-3" x1="354.1" y1="36.63" x2="436.8" y2="36.63"/><line class="cls-4" x1="392.3" y1="57.43" x2="455.4" y2="57.43"/><line class="cls-5" x1="107.9" y1="211.83" x2="25.1" y2="211.83"/><line class="cls-5" x1="69.7" y1="191.02" x2="6.6" y2="191.02"/><line class="cls-5" x1="354.1" y1="36.63" x2="436.8" y2="36.63"/><line class="cls-5" x1="392.3" y1="57.43" x2="455.4" y2="57.43"/><path class="cls-6" d="M353,239.52l98.8-98.8a23.78,23.78,0,0,0,0-33.5l-21.4-21.4-134,134,19.8,19.8A26,26,0,0,0,353,239.52Z"/><path class="cls-7" d="M430.4,162.13l-134-134,21-21a24.18,24.18,0,0,1,34.3,0l100.1,100.1a23.78,23.78,0,0,1,0,33.5Z"/><path class="cls-8" d="M430.4,162.13,392.2,124l-95.8,95.8,19.8,19.8a26,26,0,0,0,36.8,0Z"/><polygon class="cls-8" points="430.4 162.13 392.3 124.03 296.5 219.82 430.4 162.13"/><path class="cls-9" d="M109,239.52l-98.8-98.8a23.78,23.78,0,0,1,0-33.5l21.4-21.4,134,134-19.8,19.8A26,26,0,0,1,109,239.52Z"/><path class="cls-10" d="M31.6,162.13l134-134-21-21a24.18,24.18,0,0,0-34.3,0L10.2,107.23a23.78,23.78,0,0,0,0,33.5Z"/><path class="cls-8" d="M31.6,162.13,69.8,124l95.8,95.8-19.8,19.8a26,26,0,0,1-36.8,0Z"/><polygon class="cls-8" points="31.6 162.13 69.7 124.03 165.5 219.82 31.6 162.13"/></g><polygon class="cls-8" points="31.6 162.13 165.5 28.13 155.4 18.02 31.6 162.13"/><polygon class="cls-8" points="430.4 162.13 296.5 28.13 306.6 18.02 430.4 162.13"/><polygon class="cls-8" points="31.6 162.13 77.7 131.72 69.7 124.03 31.6 162.13"/><polygon class="cls-8" points="430.4 162.13 384.3 131.72 392.3 124.03 430.4 162.13"/><circle class="cls-11" cx="23.7" cy="124.03" r="13.5"/><circle class="cls-11" cx="436.8" cy="124.03" r="13.5"/><path class="cls-11" d="M23.7,110.53A13.51,13.51,0,0,0,10.2,124c0,.6.1,1.3.1,1.9a13.42,13.42,0,0,1,26.6,0A12.17,12.17,0,0,0,37,124,13.21,13.21,0,0,0,23.7,110.53Z"/><path class="cls-11" d="M436.8,114.33a13.39,13.39,0,0,1,13.3,11.6,12.25,12.25,0,0,0,.2-1.9,13.5,13.5,0,0,0-27,0,12.25,12.25,0,0,0,.2,1.9A13.39,13.39,0,0,1,436.8,114.33Z"/><path class="cls-12" d="M169.1,66.53h39.4v10.2H183.8v7.6h22.9V94H183.8v9.4h25.4v10.8H169.1V66.53Z"/><path class="cls-13" d="M216,66.53h41.6V76l-26.7,27.8H294V114H213.4v-9.8l26.4-27.6H215.9l.1-10.1Z"/><path class="cls-14" d="M260.6,66.53h32.6v7.2l-20.9,21H294v7.7H258.6v-7.5l20.7-20.8H260.6v-7.6Z"/><path class="cls-15" d="M130.8,122.33h39.4v10.2H145.5v7.6h22.9v9.7H145.5v9.4h25.4V170H130.8Z"/><path class="cls-16" d="M178.8,122.33h14.7v35.9H332.3v11.7H178.8Z"/><path class="cls-17" d="M202.3,122.33h19.5a29.57,29.57,0,0,1,9.3,1.2,16.33,16.33,0,0,1,5.9,3.4,13.82,13.82,0,0,1,3.4,5.2,18.9,18.9,0,0,1,1,6.3,17.71,17.71,0,0,1-1.5,8.1,14.08,14.08,0,0,1-4.3,4.8,14.85,14.85,0,0,1-5.9,2.6,38.92,38.92,0,0,1-7.8.9H202.4l-.1-32.5Zm13.1,7.4v17.8h3.2a17,17,0,0,0,5.9-.7,5.29,5.29,0,0,0,2.7-2.4,11.66,11.66,0,0,0,1-5.6c0-3.4-.7-5.8-2.2-7.1s-3.9-1.9-7.3-1.9l-3.3-.1Z"/><path class="cls-18" d="M248.2,122.33h35.2v6.9h-22v5.2h20.4V141H261.4v6.4h22.7v7.39H248.3V122.33Z"/><path class="cls-19" d="M291.2,122.33h12.3l16,18v-18h12.4v32.6H319.5L303.6,137v17.9H291.2Z"/></g></g></svg>